<?xml version="1.0" standalone="no"?>
<!DOCTYPE svg PUBLIC "-//W3C//DTD SVG 20010904//EN"
 "http://www.w3.org/TR/2001/REC-SVG-20010904/DTD/svg10.dtd">
<svg version="1.0" xmlns="http://www.w3.org/2000/svg"
 width="128.000000pt" height="128.000000pt" viewBox="0 0 128.000000 128.000000"
 preserveAspectRatio="xMidYMid meet">
<metadata>
Created by potrace 1.15, written by Peter Selinger 2001-2017
</metadata>
<g transform="translate(0.000000,128.000000) scale(0.100000,-0.100000)"
fill="#000000" stroke="none">
<path d="M540 1117 c-52 -51 -195 -190 -317 -309 -123 -118 -223 -223 -223
-231 0 -32 30 -47 91 -47 l59 0 0 -218 c0 -156 3 -221 12 -230 17 -17 349 -17
366 0 8 8 12 62 12 175 l0 163 95 0 95 0 0 -159 c0 -132 3 -162 16 -175 23
-24 325 -24 348 0 14 13 16 48 16 230 l0 214 69 0 c72 0 101 14 101 47 0 9
-127 145 -282 302 -336 342 -325 331 -346 331 -9 0 -60 -42 -112 -93z m347
-249 c128 -128 233 -236 233 -240 0 -5 -15 -8 -34 -8 -64 0 -66 -7 -66 -246
l0 -214 -100 0 -100 0 0 157 c0 132 -3 159 -17 175 -14 16 -34 18 -168 18
-104 0 -155 -4 -163 -12 -8 -8 -12 -62 -12 -175 l0 -163 -110 0 -110 0 0 214
c0 235 -3 246 -58 246 -23 1 7 33 218 240 135 131 247 239 250 240 3 0 110
-105 237 -232z"/>
</g>
</svg>
